<svg width="99" height="99" viewBox="0 0 99 99" fill="none" xmlns="http://www.w3.org/2000/svg">
<path fill-rule="evenodd" clip-rule="evenodd" d="M72.7487 86.2741C65.9591 90.5918 57.9011 93.0928 49.259 93.0928C37.3443 93.0928 26.54 88.3391 18.6391 80.625L37.5956 14.6095L72.7487 86.2741ZM76.0419 83.9614C86.4137 75.9449 93.0928 63.3819 93.0928 49.259C93.0928 41.0808 90.8531 33.4257 86.9537 26.8737L76.0419 83.9614ZM83.6977 22.1382L72.9219 76.1738L39.4004 6.53822C42.5692 5.80994 45.8691 5.42515 49.259 5.42515C63.228 5.42515 75.6708 11.9594 83.6977 22.1382ZM36.1674 7.41353C18.3533 12.981 5.42515 29.6102 5.42515 49.259C5.42515 59.5182 8.94965 68.9543 14.8539 76.4224L36.1674 7.41353ZM13.1302 82.0032C5.28185 73.3489 0.5 61.8623 0.5 49.259C0.5 22.3301 22.3301 0.5 49.259 0.5C76.1878 0.5 98.0179 22.3301 98.0179 49.259C98.0179 76.1878 76.1878 98.0179 49.259 98.0179C35.2762 98.0179 22.6681 92.1321 13.7771 82.7028L12.9807 82.4873L13.1302 82.0032Z" fill="black"/>
<path fill-rule="evenodd" clip-rule="evenodd" d="M0 49.259C0 22.054 22.054 0 49.259 0C76.4639 0 98.5179 22.054 98.5179 49.259C98.5179 76.4639 76.4639 98.5179 49.259 98.5179C35.1837 98.5179 22.4867 92.6139 13.5106 83.1487L12.3501 82.8347L12.5687 82.1271C4.75371 73.4091 0 61.8886 0 49.259ZM13.6113 82.1399L14.044 82.257L14.1409 82.3598C22.9414 91.693 35.4195 97.5179 49.259 97.5179C75.9116 97.5179 97.5179 75.9116 97.5179 49.259C97.5179 22.6063 75.9116 1 49.259 1C22.6063 1 1 22.6063 1 49.259C1 61.7334 5.73238 73.1014 13.5006 81.6673L13.6921 81.8784L13.6113 82.1399ZM39.2884 6.05093C42.4936 5.31426 45.8312 4.92515 49.259 4.92515C63.3876 4.92515 75.9727 11.5348 84.0903 21.8286L84.2332 22.0098L73.1198 77.7378L38.6784 6.19112L39.2884 6.05093ZM40.1244 6.88954L72.7239 74.6098L83.1621 22.2675C75.2216 12.307 62.9857 5.92515 49.259 5.92515C46.1248 5.92515 43.0689 6.25779 40.1244 6.88954ZM36.9256 6.65269L15.0511 77.4781L14.4617 76.7324C8.49012 69.1792 4.92515 59.6347 4.92515 49.259C4.92515 29.3853 18.0014 12.5671 36.0182 6.93629L36.9256 6.65269ZM35.4052 8.18675C18.2661 13.9656 5.92515 30.1717 5.92515 49.259C5.92515 59.0577 9.17686 68.0957 14.6604 75.3544L35.4052 8.18675ZM37.4731 13.2244L73.3947 86.4558L73.017 86.696C66.1496 91.0632 57.9989 93.5928 49.259 93.5928C37.2086 93.5928 26.2803 88.7844 18.2898 80.9827L18.076 80.7741L37.4731 13.2244ZM37.7181 15.9945L19.2024 80.4748C26.9942 87.979 37.5873 92.5928 49.259 92.5928C57.6431 92.5928 65.4698 90.2122 72.1016 86.0903L37.7181 15.9945ZM86.7099 25.4862L87.3834 26.6179C91.3276 33.2452 93.5928 40.9883 93.5928 49.259C93.5928 63.5433 86.8367 76.2499 76.3477 84.3571L75.3029 85.1646L86.7099 25.4862ZM87.1917 28.2918L76.7868 82.7275C86.4394 74.779 92.5928 62.7377 92.5928 49.259C92.5928 41.6523 90.6333 34.5046 87.1917 28.2918Z" fill="black"/>
</svg>
