<svg width="114" height="114" viewBox="0 0 114 114" fill="none" xmlns="http://www.w3.org/2000/svg">
<circle cx="57" cy="57" r="57" fill="#191919"/>
<path fill-rule="evenodd" clip-rule="evenodd" d="M80.1236 93.4391C73.4398 97.6895 65.5073 100.151 56.9998 100.151C45.2706 100.151 34.6343 95.4717 26.8564 87.8775L45.5177 22.8901L80.1236 93.4391ZM83.3654 91.1626C93.5759 83.2709 100.151 70.9033 100.151 57.0001C100.151 48.9491 97.9463 41.413 94.1075 34.9628L83.3654 91.1626ZM90.9021 30.3012L80.294 83.4959L47.2944 14.9445C50.414 14.2275 53.6627 13.8487 56.9998 13.8487C70.7512 13.8487 83.0002 20.2811 90.9021 30.3012ZM44.1117 15.8063C26.5751 21.2872 13.8485 37.6574 13.8485 57.0001C13.8485 67.0995 17.318 76.3885 23.1302 83.7403L44.1117 15.8063ZM21.4333 89.2343C13.7073 80.7147 9 69.4071 9 57.0001C9 30.4905 30.4903 9.00024 56.9998 9.00024C83.5094 9.00024 105 30.4905 105 57.0001C105 83.5097 83.5094 105 56.9998 105C43.2348 105 30.8231 99.2058 22.0706 89.9234L21.286 89.7111L21.4333 89.2343Z" fill="white"/>
<path d="M80.1236 93.4391L80.3919 93.861L80.7696 93.6208L80.5725 93.2189L80.1236 93.4391ZM26.8564 87.8775L26.3758 87.7395L26.2934 88.0266L26.5071 88.2352L26.8564 87.8775ZM45.5177 22.8901L45.9666 22.6699L45.3952 21.505L45.0371 22.7521L45.5177 22.8901ZM83.3654 91.1626L82.8743 91.0687L82.6263 92.3657L83.6711 91.5582L83.3654 91.1626ZM94.1075 34.9628L94.5371 34.7071L93.8636 33.5754L93.6164 34.869L94.1075 34.9628ZM80.294 83.4959L79.8435 83.7128L80.4919 85.0599L80.7843 83.5937L80.294 83.4959ZM90.9021 30.3012L91.3925 30.399L91.4376 30.1728L91.2948 29.9916L90.9021 30.3012ZM47.2944 14.9445L47.1824 14.4572L46.5724 14.5974L46.8439 15.1614L47.2944 14.9445ZM44.1117 15.8063L44.5894 15.9538L44.87 15.0454L43.9625 15.329L44.1117 15.8063ZM23.1302 83.7403L22.7379 84.0503L23.3274 84.796L23.6079 83.8878L23.1302 83.7403ZM21.4333 89.2343L21.9111 89.3818L21.9952 89.1095L21.8037 88.8984L21.4333 89.2343ZM22.0706 89.9234L22.4344 89.5804L22.3375 89.4776L22.2011 89.4407L22.0706 89.9234ZM21.286 89.7111L20.8083 89.5636L20.6554 90.0585L21.1555 90.1938L21.286 89.7111ZM56.9998 100.651C65.6051 100.651 73.6302 98.1609 80.3919 93.861L79.8553 93.0172C73.2493 97.2181 65.4095 99.6514 56.9998 99.6514V100.651ZM26.5071 88.2352C34.3747 95.917 45.1349 100.651 56.9998 100.651V99.6514C45.4063 99.6514 34.894 95.0264 27.2057 87.5197L26.5071 88.2352ZM45.0371 22.7521L26.3758 87.7395L27.337 88.0155L45.9983 23.0281L45.0371 22.7521ZM80.5725 93.2189L45.9666 22.6699L45.0688 23.1103L79.6747 93.6593L80.5725 93.2189ZM83.6711 91.5582C93.9989 83.5759 100.651 71.0647 100.651 57.0001H99.6512C99.6512 70.742 93.1529 82.9658 83.0596 90.767L83.6711 91.5582ZM100.651 57.0001C100.651 48.8566 98.4208 41.2325 94.5371 34.7071L93.6778 35.2186C97.4719 41.5935 99.6512 49.0415 99.6512 57.0001H100.651ZM93.6164 34.869L82.8743 91.0687L83.8565 91.2565L94.5986 35.0567L93.6164 34.869ZM80.7843 83.5937L91.3925 30.399L90.4118 30.2034L79.8036 83.3981L80.7843 83.5937ZM46.8439 15.1614L79.8435 83.7128L80.7445 83.279L47.7449 14.7277L46.8439 15.1614ZM56.9998 13.3487C53.6247 13.3487 50.3384 13.7319 47.1824 14.4572L47.4064 15.4318C50.4895 14.7232 53.7006 14.3487 56.9998 14.3487V13.3487ZM91.2948 29.9916C83.3021 19.8565 70.9108 13.3487 56.9998 13.3487V14.3487C70.5916 14.3487 82.6983 20.7058 90.5095 30.6108L91.2948 29.9916ZM43.9625 15.329C26.2232 20.8733 13.3485 37.4325 13.3485 57.0001H14.3485C14.3485 37.8823 26.9271 21.701 44.2608 16.2835L43.9625 15.329ZM13.3485 57.0001C13.3485 67.216 16.8585 76.6134 22.7379 84.0503L23.5224 83.4302C17.7775 76.1635 14.3485 66.9829 14.3485 57.0001H13.3485ZM23.6079 83.8878L44.5894 15.9538L43.6339 15.6587L22.6524 83.5927L23.6079 83.8878ZM8.5 57.0001C8.5 69.536 13.2568 80.9622 21.0629 89.5701L21.8037 88.8984C14.1578 80.4672 9.5 69.2782 9.5 57.0001H8.5ZM56.9998 8.50024C30.2141 8.50024 8.5 30.2144 8.5 57.0001H9.5C9.5 30.7666 30.7664 9.50024 56.9998 9.50024V8.50024ZM105.5 57.0001C105.5 30.2144 83.7855 8.50024 56.9998 8.50024V9.50024C83.2333 9.50024 104.5 30.7666 104.5 57.0001H105.5ZM56.9998 105.5C83.7855 105.5 105.5 83.7858 105.5 57.0001H104.5C104.5 83.2335 83.2333 104.5 56.9998 104.5V105.5ZM21.7068 90.2664C30.5498 99.6448 43.0915 105.5 56.9998 105.5V104.5C43.3782 104.5 31.0964 98.7667 22.4344 89.5804L21.7068 90.2664ZM22.2011 89.4407L21.4166 89.2285L21.1555 90.1938L21.94 90.406L22.2011 89.4407ZM21.7638 89.8587L21.9111 89.3818L20.9556 89.0867L20.8083 89.5636L21.7638 89.8587Z" fill="white"/>
</svg>
